<svg xmlns="http://www.w3.org/2000/svg" width="65.419" height="78" viewBox="0 0 65.419 78"><defs><style>.a{fill:#fff;}</style></defs><g transform="translate(-6 -1)"><path class="a" d="M31.548,11H24v2.516h5.032v2.516H24v2.516h5.032v2.516H24v2.516h7.548Z" transform="translate(4.645 2.581)"/><path class="a" d="M42.065,17.29A6.3,6.3,0,0,0,35.774,11H32V23.581h3.774A6.3,6.3,0,0,0,42.065,17.29Zm-7.548-3.774h1.258a3.774,3.774,0,1,1,0,7.548H34.516Z" transform="translate(6.71 2.581)"/><path class="a" d="M67.645,55.275V24.725a5.02,5.02,0,1,0-5.032-8.147L43.627,7.084a5.032,5.032,0,1,0-9.836,0L14.806,16.577a5.017,5.017,0,1,0-5.032,8.147V55.275a5.02,5.02,0,1,0,5.032,8.147l18.985,9.493a5.032,5.032,0,1,0,9.836,0l18.985-9.493a5.017,5.017,0,1,0,5.032-8.147ZM66.387,17.355a2.516,2.516,0,1,1-2.516,2.516A2.519,2.519,0,0,1,66.387,17.355ZM38.71,3.516a2.516,2.516,0,1,1-2.516,2.516A2.519,2.519,0,0,1,38.71,3.516Zm-3.774,5.81a4.966,4.966,0,0,0,7.548,0l18.985,9.493a4.888,4.888,0,0,0,0,2.1L42.484,30.416a4.966,4.966,0,0,0-7.548,0L15.95,20.923a4.888,4.888,0,0,0,0-2.1ZM43.382,35.55a18.32,18.32,0,0,1,3.135,5.708H39.968V38.563a5.034,5.034,0,0,0,3.414-3.013Zm4.134,12a20.63,20.63,0,0,1-.348,3.774h-7.2V43.774h7.2A20.446,20.446,0,0,1,47.516,47.548Zm-17.613,0a20.446,20.446,0,0,1,.343-3.774h7.2v7.548H30.259A20.305,20.305,0,0,1,29.9,47.548Zm7.548,6.29v9a18.953,18.953,0,0,1-6.533-9Zm2.516,9.024V53.839h6.548A18.644,18.644,0,0,1,39.968,62.863ZM38.71,36.226a2.516,2.516,0,1,1,2.516-2.516A2.519,2.519,0,0,1,38.71,36.226Zm-1.258,2.337v2.695H30.9a18.334,18.334,0,0,1,3.135-5.708A5.034,5.034,0,0,0,37.452,38.563Zm-4.038-6.1a20.906,20.906,0,0,0-5.152,8.79H23.613a16.342,16.342,0,0,1,9.351-9.015ZM22.355,47.548a16.391,16.391,0,0,1,.442-3.774h4.9a22.758,22.758,0,0,0,.016,7.548h-4.9A16.238,16.238,0,0,1,22.355,47.548Zm5.905,6.29A20.824,20.824,0,0,0,33.968,63.2a16.426,16.426,0,0,1-10.351-9.357Zm20.9,0H53.8A16.429,16.429,0,0,1,43.453,63.2,20.845,20.845,0,0,0,49.159,53.839Zm5.905-6.29a16.306,16.306,0,0,1-.457,3.774h-4.9a22.758,22.758,0,0,0,.014-7.548h4.9A16.323,16.323,0,0,1,55.065,47.548Zm-5.907-6.29a20.893,20.893,0,0,0-5.152-8.79l.449-.224a16.338,16.338,0,0,1,9.351,9.015H49.158ZM8.516,19.871a2.516,2.516,0,1,1,2.516,2.516A2.519,2.519,0,0,1,8.516,19.871Zm2.516,42.774a2.516,2.516,0,1,1,2.516-2.516A2.519,2.519,0,0,1,11.032,62.645ZM38.71,76.484a2.516,2.516,0,1,1,2.516-2.516A2.519,2.519,0,0,1,38.71,76.484Zm3.774-5.81a4.966,4.966,0,0,0-7.548,0L15.95,61.181a4.993,4.993,0,0,0-3.66-5.905V24.725a5.007,5.007,0,0,0,2.516-1.56l15.24,7.62a18.87,18.87,0,1,0,17.327,0l15.239-7.62a5,5,0,0,0,2.516,1.56V55.275a4.993,4.993,0,0,0-3.66,5.905Zm23.9-8.029A2.516,2.516,0,1,1,68.9,60.129,2.519,2.519,0,0,1,66.387,62.645Z" transform="translate(0 0)"/></g></svg>