<svg xmlns="http://www.w3.org/2000/svg" width="67.943" height="67.948" viewBox="0 0 67.943 67.948"><defs><style>.a{fill:#fff;}</style></defs><g transform="translate(-0.018)"><g transform="translate(0.018)"><path class="a" d="M66.211,21.383a5.979,5.979,0,0,0-8.446,0l-5.989,5.994V11.6A5.932,5.932,0,0,0,50.026,7.38L44.4,1.749A5.932,5.932,0,0,0,40.173,0H5.99A5.979,5.979,0,0,0,.018,5.972v56A5.979,5.979,0,0,0,5.99,67.948H45.8a5.979,5.979,0,0,0,5.972-5.972v-17.7L66.211,29.829A5.968,5.968,0,0,0,66.211,21.383ZM39.831,3.981a2.173,2.173,0,0,1,1.749.583l5.63,5.631a2.173,2.173,0,0,1,.583,1.749H39.831Zm7.963,57.995A1.993,1.993,0,0,1,45.8,63.967H5.99A1.993,1.993,0,0,1,4,61.976v-56A1.993,1.993,0,0,1,5.99,3.981H35.85v9.953a1.991,1.991,0,0,0,1.991,1.991h9.953V31.363l-5.873,5.878-2.814,2.814a1.991,1.991,0,0,0-.481.778l-2.815,8.446A1.991,1.991,0,0,0,38.329,51.8l8.446-2.815a1.989,1.989,0,0,0,.778-.481l.242-.242V61.976ZM43.33,41.463l2.815,2.815-1.075,1.075-4.223,1.408,1.408-4.223Zm5.63,0-2.815-2.815,9.569-9.577,2.815,2.815ZM63.395,27.014l-2.052,2.054-2.815-2.815L60.58,24.2a1.991,1.991,0,1,1,2.815,2.816Z" transform="translate(-0.018)"/></g><g transform="translate(7.981 19.907)"><path class="a" d="M89.878,150H62.009a1.991,1.991,0,1,0,0,3.981H89.878a1.991,1.991,0,0,0,0-3.981Z" transform="translate(-60.018 -150)"/></g><g transform="translate(7.981 27.869)"><path class="a" d="M81.915,210H62.009a1.991,1.991,0,1,0,0,3.981H81.915a1.991,1.991,0,0,0,0-3.981Z" transform="translate(-60.018 -210)"/></g><g transform="translate(7.981 35.832)"><path class="a" d="M81.915,270H62.009a1.991,1.991,0,0,0,0,3.981H81.915a1.991,1.991,0,0,0,0-3.981Z" transform="translate(-60.018 -270)"/></g><g transform="translate(7.981 43.795)"><path class="a" d="M81.915,330H62.009a1.991,1.991,0,1,0,0,3.981H81.915a1.991,1.991,0,1,0,0-3.981Z" transform="translate(-60.018 -330)"/></g><g transform="translate(23.906 56.004)"><path class="a" d="M193.953,422H182.009a1.991,1.991,0,1,0,0,3.981h11.944a1.991,1.991,0,1,0,0-3.981Z" transform="translate(-180.018 -422)"/></g></g></svg>