<svg xmlns="http://www.w3.org/2000/svg" width="69.366" height="69.366" viewBox="0 0 69.366 69.366"><defs><style>.a{fill:#fff;}</style></defs><path class="a" d="M192.059,0H178.547a1.018,1.018,0,1,0,0,2.036h13.512a1.019,1.019,0,0,1,1.018,1.018V23.546a1.019,1.019,0,0,1-1.018,1.018H164.046v-.489a3.6,3.6,0,0,0-7.2,0v.489H146.471a1.018,1.018,0,0,0,0,2.036h10.371V44.543l-2.418-2.71a7.884,7.884,0,0,0-5.877-2.632,2.345,2.345,0,0,0-2.06,3.466l4.055,7.449a20.137,20.137,0,0,0,3.811,4.967l4.321,4.111v2.181a2.331,2.331,0,0,0-1.853,2.279v3.385a2.33,2.33,0,0,0,2.328,2.328H175.2a2.33,2.33,0,0,0,2.328-2.328V63.654a2.33,2.33,0,0,0-1.786-2.262V59.129c.928-1.171,3.805-5.466,3.805-13.719V39.192a3.6,3.6,0,0,0-5.422-3.107,3.6,3.6,0,0,0-5.167-1.775,3.6,3.6,0,0,0-4.912-1.912V26.6h28.013a3.058,3.058,0,0,0,3.054-3.054V3.054A3.058,3.058,0,0,0,192.059,0ZM165.611,34.076a1.567,1.567,0,0,1,1.566,1.566v1.775a1.018,1.018,0,0,0,2.036,0,1.566,1.566,0,1,1,3.131,0v1.775a1.018,1.018,0,1,0,2.036,0,1.566,1.566,0,0,1,3.131,0V45.41c0,8.747-3.494,12.612-3.526,12.647a1.018,1.018,0,0,0-.279.7v2.569h-2.46a1.018,1.018,0,0,0,0,2.036H175.2a.292.292,0,0,1,.292.292v3.385a.292.292,0,0,1-.292.292H159.148a.292.292,0,0,1-.292-.292V63.654a.292.292,0,0,1,.292-.292h8.026a1.018,1.018,0,1,0,0-2.036H160.71V58.757a1.018,1.018,0,0,0-.316-.738l-4.637-4.412a18.1,18.1,0,0,1-3.426-4.466l-4.055-7.449c-.1-.257,0-.418.271-.457a5.845,5.845,0,0,1,4.357,1.952l4.157,4.659a1.047,1.047,0,0,0,1.816-.678V24.075a1.566,1.566,0,1,1,3.131,0V35.641a1.018,1.018,0,1,0,2.036,0,1.568,1.568,0,0,1,1.566-1.566Z" transform="translate(-125.747 0)"/><path class="a" d="M16.652,24.564H3.054a1.019,1.019,0,0,1-1.018-1.018V3.054A1.019,1.019,0,0,1,3.054,2.036H48.727a1.018,1.018,0,1,0,0-2.036H3.054A3.058,3.058,0,0,0,0,3.054V23.546A3.058,3.058,0,0,0,3.054,26.6h13.6a1.018,1.018,0,1,0,0-2.036Z" transform="translate(0)"/><path class="a" d="M215.743,44.661a2.179,2.179,0,0,0-1.208-3.716l-2.371-.344a.143.143,0,0,1-.108-.078L211,38.374a2.179,2.179,0,0,0-3.907,0l-1.06,2.148a.143.143,0,0,1-.107.078l-2.371.344a2.179,2.179,0,0,0-1.207,3.716l1.716,1.672a.142.142,0,0,1,.041.126l-.4,2.361a2.179,2.179,0,0,0,3.161,2.3L208.977,50a.142.142,0,0,1,.132,0l2.121,1.115a2.179,2.179,0,0,0,3.161-2.3l-.4-2.361a.142.142,0,0,1,.041-.126Zm-3.137.214a2.178,2.178,0,0,0-.626,1.928l.4,2.361a.143.143,0,0,1-.207.15l-2.12-1.115a2.178,2.178,0,0,0-2.028,0l-2.12,1.115a.142.142,0,0,1-.207-.15l.4-2.361a2.178,2.178,0,0,0-.627-1.928L203.765,43.2a.142.142,0,0,1,.079-.243l2.371-.344a2.178,2.178,0,0,0,1.64-1.192l1.06-2.148a.142.142,0,0,1,.256,0l1.06,2.148a2.178,2.178,0,0,0,1.641,1.192l2.371.344a.143.143,0,0,1,.079.243Z" transform="translate(-174.36 -32.126)"/><path class="a" d="M64.556,48.822l-.4-2.361a.142.142,0,0,1,.041-.126l1.715-1.672A2.179,2.179,0,0,0,64.7,40.946L62.33,40.6a.143.143,0,0,1-.107-.078l-1.06-2.148a2.179,2.179,0,0,0-3.907,0l-1.06,2.148a.143.143,0,0,1-.107.078l-2.371.344a2.179,2.179,0,0,0-1.207,3.716l1.716,1.672a.142.142,0,0,1,.041.126l-.4,2.361a2.179,2.179,0,0,0,3.161,2.3L59.142,50a.143.143,0,0,1,.133,0L61.4,51.118a2.179,2.179,0,0,0,3.161-2.3Zm-1.785-3.945a2.178,2.178,0,0,0-.627,1.928l.4,2.361a.142.142,0,0,1-.207.15L60.222,48.2a2.179,2.179,0,0,0-2.028,0l-2.12,1.115a.142.142,0,0,1-.207-.15l.4-2.361a2.178,2.178,0,0,0-.627-1.928L53.93,43.2a.142.142,0,0,1,.079-.243l2.371-.344a2.179,2.179,0,0,0,1.64-1.192l1.06-2.148a.142.142,0,0,1,.256,0l1.06,2.148a2.178,2.178,0,0,0,1.64,1.192l2.371.344a.143.143,0,0,1,.079.243Z" transform="translate(-44.825 -32.126)"/><path class="a" d="M365.579,44.661a2.179,2.179,0,0,0-1.208-3.716L362,40.6a.143.143,0,0,1-.108-.078l-1.06-2.148a2.179,2.179,0,0,0-3.907,0l-1.06,2.148a.143.143,0,0,1-.107.078l-2.371.344a2.179,2.179,0,0,0-1.207,3.716l1.716,1.672a.142.142,0,0,1,.041.126l-.4,2.361a2.179,2.179,0,0,0,3.161,2.3L358.813,50a.142.142,0,0,1,.133,0l2.121,1.115a2.178,2.178,0,0,0,3.161-2.3l-.4-2.361a.142.142,0,0,1,.041-.126Zm-3.137.214a2.177,2.177,0,0,0-.626,1.928l.4,2.361a.143.143,0,0,1-.207.15l-2.12-1.115a2.179,2.179,0,0,0-2.028,0l-2.121,1.115a.142.142,0,0,1-.207-.15l.4-2.361a2.178,2.178,0,0,0-.626-1.929L353.6,43.2a.142.142,0,0,1,.079-.243l2.371-.344a2.18,2.18,0,0,0,1.64-1.192l1.06-2.148a.142.142,0,0,1,.255,0l1.06,2.148a2.179,2.179,0,0,0,1.641,1.192l2.371.344a.142.142,0,0,1,.079.243Z" transform="translate(-303.896 -32.126)"/></svg>