<svg xmlns="http://www.w3.org/2000/svg" width="64" height="64.12" viewBox="0 0 64 64.12"><defs><style>.a{fill:#fff;}</style></defs><g transform="translate(-0.478)"><g transform="translate(0)"><rect class="a" width="64" height="2" transform="translate(0.478 62.12)"/><path class="a" d="M25.077,309.539H35.846a1.077,1.077,0,0,0,1.077-1.077V289.077A1.077,1.077,0,0,0,35.846,288H25.077A1.077,1.077,0,0,0,24,289.077v19.385A1.077,1.077,0,0,0,25.077,309.539Zm1.077-19.385h8.616v17.231H26.154Z" transform="translate(-20.769 -249.23)"/><path class="a" d="M249.077,226.462h10.769a1.077,1.077,0,0,0,1.077-1.077V193.077A1.077,1.077,0,0,0,259.846,192H249.077A1.077,1.077,0,0,0,248,193.077v32.308A1.077,1.077,0,0,0,249.077,226.462Zm1.077-32.308h8.616v30.154h-8.616Z" transform="translate(-214.615 -166.153)"/><path class="a" d="M137.077,143.385h10.769a1.077,1.077,0,0,0,1.077-1.077V97.077A1.077,1.077,0,0,0,147.846,96H137.077A1.077,1.077,0,0,0,136,97.077v45.232A1.077,1.077,0,0,0,137.077,143.385Zm1.077-45.231h8.616v43.078h-8.616Z" transform="translate(-117.692 -83.077)"/><path class="a" d="M361.077,60.309h10.769a1.077,1.077,0,0,0,1.077-1.077V1.077A1.077,1.077,0,0,0,371.846,0H361.077A1.077,1.077,0,0,0,360,1.077V59.232A1.077,1.077,0,0,0,361.077,60.309Zm1.077-58.155h8.616v56h-8.616Z" transform="translate(-311.538)"/></g></g></svg>