<svg xmlns="http://www.w3.org/2000/svg" width="1593.149" height="1243.096" viewBox="0 0 1593.149 1243.096"><defs><style>.a{fill:rgba(0,81,191,0.54);}</style></defs><g transform="translate(0 0)"><path class="a" d="M960.907,539.95c7.663-40.21,24.895-51.2,24.895-51.2,4.778-12.441,43.072-62.7,57.429-73.236s26.8-36.845,38.282-50.724,37.337-80.409,37.337-80.409,3.833-16.273,5.268-52.652,15.8-17.71,15.8-17.71c3.819,42.605-31.11,111.039-31.11,111.039s-23.459,62.219-73.691,111.518-64.185,107.453-64.185,107.453c39.854,20.695,14.959,57.552,14.959,57.552-9.924,4.544-6.337,15.438-6.337,15.438,4.789,26.8,18.19,8.437,18.19,8.437s48.843-297.525,459.544-530.129c0,0,298.655-149.542,298.655,17.121S1738.746,250.4,1738.746,250.4s11.483,44.03-29.674,70.829c0,0,8.6,52.652-22.02,61.273s-7.664,62.219-7.664,62.219,11.5,10.526-25.791,63.177c0,0,18.189,50.724-20.1,108.165,0,0,21.062,59.345-25.792,57.429,0,0-27.756,19.147-113.913,10.525,0,0,146.46,91.9,113.913,125.4,0,0,49.777,111.039,9.567,155.082,0,0-22.009,5.735-17.194,79.438,0,0,6.705,12.454-44.987,24.9,0,0-25.792-.958-10.527,67.967,0,0-2.874,26.8-49.777,18.177,0,0-43.072-.958-34.463,45,0,0,8.6,25.792-40.2,21.051,0,0-29.673-10.525-38.294,21.063,0,0,8.6,35.421-30.631,31.589,0,0-53.6-38.294-84.227-17.194,0,0-36.379,43.072-73.691.958,0,0-31.589-113.913-77.534-137.838,0,0-107.207-103.388-128.271-268.97,0,0-20.093-8.6-12.441,29.672,0,0,4.79,261.319-30.631,277.567Z" transform="translate(-162.79 -32.813)"/><path class="a" d="M1106.055,542.5c-7.664-40.21-27.99-54.445-27.99-54.445-4.777-12.441-43.072-62.7-57.429-73.224s-26.8-36.845-38.295-50.736-37.324-80.409-37.324-80.409-3.832-16.273-5.269-52.652-15.794-17.71-15.794-17.71c-3.832,42.605,31.11,111.039,31.11,111.039s23.458,62.219,73.69,111.518,64.124,107.453,64.124,107.453c-39.843,20.695-14.948,57.552-14.948,57.552,9.924,4.544,6.338,15.438,6.338,15.438-4.79,26.8-18.189,8.438-18.189,8.438S1017.307,327.24,606.655,94.637c0,0-298.655-149.542-298.655,17.121s17.194,137.948,17.194,137.948-11.483,44.03,29.673,70.841c0,0-8.6,52.64,22.021,61.261s7.664,62.219,7.664,62.219-11.5,10.525,25.791,63.177c0,0-18.188,50.724,20.106,108.165,0,0-21.063,59.345,25.792,57.429,0,0,27.757,19.147,113.913,10.525,0,0-146.46,91.9-113.913,125.4,0,0-49.778,111.039-9.568,155.082,0,0,22.008,5.735,17.194,79.45,0,0-6.693,12.441,45,24.883,0,0,25.791-.958,10.526,67.967,0,0,2.873,26.8,49.777,18.177,0,0,43.073-.946,34.463,45,0,0-8.6,25.792,40.2,21.051,0,0,29.673-10.525,38.294,21.063,0,0-8.6,35.421,30.63,31.589,0,0,53.6-38.294,84.228-17.194,0,0,36.379,43.072,73.691.958,0,0,31.588-113.913,77.534-137.838,0,0,104.4-100.71,127.4-262.571a3.341,3.341,0,0,1,6.485-.59c1.682,5.011,2.272,14.345-1.228,31.712,0,0-27.131,254.305,8.29,270.579Z" transform="translate(-308 -32.97)"/></g></svg>