<svg xmlns="http://www.w3.org/2000/svg" width="50.279" height="50.279" viewBox="0 0 50.279 50.279"><defs><style>.a{fill:#fff;}</style></defs><path class="a" d="M31.546,36.49c0-2.372-1.614-2.372-1.614-2.372H23.294v5.089h6.227C30.6,39.207,31.546,38.862,31.546,36.49Z" transform="translate(-11.312 -16.569)"/><path class="a" d="M29.933,50.846H23.294v6.1h6.332c.953-.027,2.711-.326,2.711-2.963C32.337,50.814,29.933,50.846,29.933,50.846Z" transform="translate(-11.312 -24.693)"/><path class="a" d="M65.453,44.011a4.08,4.08,0,0,0-4.014,3.516h7.492A3.394,3.394,0,0,0,65.453,44.011Z" transform="translate(-29.837 -21.373)"/><path class="a" d="M25.14,0a25.14,25.14,0,1,0,25.14,25.14A25.14,25.14,0,0,0,25.14,0Zm5.481,14.838h9.41v2.808h-9.41Zm-4.756,14.73c0,6.961-7.244,6.732-7.244,6.732H6.753V13.495H18.62c3.607,0,6.454,1.991,6.454,6.072s-3.48,4.34-3.48,4.34C26.181,23.907,25.865,29.569,25.865,29.569Zm9.8,3.6c3.791,0,3.657-2.454,3.657-2.454h4.014c0,6.511-7.8,6.065-7.8,6.065-9.365,0-8.763-8.718-8.763-8.718S26.757,19.3,35.526,19.3c9.231,0,7.939,9.9,7.939,9.9H31.647A3.71,3.71,0,0,0,35.661,33.166Z"/></svg>