<svg xmlns="http://www.w3.org/2000/svg" width="50.217" height="50.217" viewBox="0 0 50.217 50.217"><defs><style>.a{fill:#fff;}</style></defs><path class="a" d="M153.886,144H133.625l10.13,8.683Zm0,0" transform="translate(-118.647 -127.859)"/><path class="a" d="M131.658,163.1a.9.9,0,0,1-.584-.216L120,153.391v16.882h23.315V153.391l-11.074,9.492a.9.9,0,0,1-.584.216Zm0,0" transform="translate(-106.549 -136.197)"/><path class="a" d="M25.109,0A25.109,25.109,0,1,0,50.217,25.109,25.109,25.109,0,0,0,25.109,0ZM38.56,34.973a.9.9,0,0,1-.9.9H12.554a.9.9,0,0,1-.9-.9V15.245a.9.9,0,0,1,.9-.9H37.663a.9.9,0,0,1,.9.9Zm0,0"/></svg>