<svg id="_x33_0" enable-background="new 0 0 64 64" height="512" viewBox="0 0 64 64" width="512" xmlns="http://www.w3.org/2000/svg"><g><g><g><path d="m32 39c-3.859 0-7-3.141-7-7 0-3.86 3.141-7 7-7s7 3.14 7 7c0 3.859-3.141 7-7 7z" fill="#f0bc5e"/></g></g><g><path d="m31 17h2v2h-2z"/><path d="m51 37h2v2h-2z"/><path d="m11 37h2v2h-2z"/><path d="m41.324 50.81c3.544-1.757 6.571-4.511 8.672-8.002.651.121 1.319.192 2.004.192 6.065 0 11-4.935 11-11s-4.935-11-11-11c-.686 0-1.355.071-2.006.192-1.775-2.95-4.236-5.411-7.186-7.186.121-.651.192-1.32.192-2.006 0-6.065-4.935-11-11-11s-11 4.935-11 11c0 .686.071 1.355.192 2.006-2.95 1.775-5.411 4.236-7.186 7.186-.651-.121-1.32-.192-2.006-.192-6.065 0-11 4.935-11 11s4.935 11 11 11c.685 0 1.353-.071 2.004-.192 2.101 3.492 5.128 6.245 8.672 8.002l-3.396 10.19h-3.28v2h32v-2h-3.28zm1.289 10.19h-1.893l-2.94-8.818c.577-.166 1.143-.36 1.702-.573zm-10.613-8c1.298 0 2.576-.129 3.826-.361l.787 2.361h-9.225l.787-2.361c1.249.232 2.527.361 3.825.361zm-5.279 4h10.559l1.333 4h-13.226zm19.596-18.029c.875-2.36 3.121-3.971 5.683-3.971 2.561 0 4.808 1.612 5.683 3.971-1.551 1.267-3.529 2.029-5.683 2.029s-4.133-.762-5.683-2.029zm-23.317-6.971c0-3.208-1.389-6.091-3.587-8.103 1.161-1.798 2.686-3.324 4.484-4.484 2.012 2.198 4.895 3.587 8.103 3.587s6.091-1.389 8.103-3.587c1.798 1.16 3.323 2.685 4.484 4.484-2.198 2.012-3.587 4.895-3.587 8.103 0 3.218 1.398 6.108 3.607 8.122-2.751 4.261-7.507 6.878-12.607 6.878s-9.856-2.617-12.607-6.878c2.209-2.014 3.607-4.904 3.607-8.122zm6-22c0-1.654 1.346-3 3-3s3 1.346 3 3-1.346 3-3 3-3-1.346-3-3zm-2.683 8.971c.875-2.36 3.121-3.971 5.683-3.971 2.561 0 4.808 1.612 5.683 3.971-1.551 1.267-3.529 2.029-5.683 2.029s-4.133-.762-5.683-2.029zm22.683 11.029c0-1.654 1.346-3 3-3s3 1.346 3 3-1.346 3-3 3-3-1.346-3-3zm12 2c0 2.025-.68 3.89-1.813 5.395-.842-1.642-2.214-2.935-3.871-3.681 1.025-.916 1.684-2.234 1.684-3.714 0-2.757-2.243-5-5-5s-5 2.243-5 5c0 1.48.659 2.797 1.684 3.714-1.657.746-3.029 2.04-3.871 3.681-1.133-1.505-1.813-3.37-1.813-5.395 0-4.962 4.037-9 9-9s9 4.038 9 9zm-12.995-10.238c-.63.247-1.229.55-1.797.904-1.276-1.939-2.936-3.599-4.874-4.874.353-.567.657-1.167.904-1.796 2.317 1.484 4.282 3.448 5.767 5.766zm-16.005-18.762c4.963 0 9 4.038 9 9 0 2.025-.68 3.89-1.814 5.395-.842-1.642-2.214-2.935-3.871-3.681 1.026-.916 1.685-2.234 1.685-3.714 0-2.757-2.243-5-5-5s-5 2.243-5 5c0 1.48.659 2.797 1.684 3.714-1.657.746-3.029 2.04-3.871 3.681-1.133-1.506-1.813-3.37-1.813-5.395 0-4.962 4.037-9 9-9zm-10.238 12.996c.247.63.55 1.229.904 1.796-1.938 1.275-3.598 2.935-4.874 4.874-.567-.353-1.167-.657-1.797-.904 1.485-2.318 3.45-4.282 5.767-5.766zm-9.762 7.004c4.963 0 9 4.038 9 9 0 2.025-.68 3.89-1.813 5.395-.842-1.642-2.214-2.935-3.871-3.681 1.025-.916 1.684-2.234 1.684-3.714 0-2.757-2.243-5-5-5s-5 2.243-5 5c0 1.48.659 2.797 1.684 3.714-1.657.746-3.029 2.04-3.871 3.681-1.133-1.505-1.813-3.37-1.813-5.395 0-4.962 4.037-9 9-9zm-3 7c0-1.654 1.346-3 3-3s3 1.346 3 3-1.346 3-3 3-3-1.346-3-3zm-2.683 8.971c.875-2.36 3.121-3.971 5.683-3.971 2.561 0 4.808 1.612 5.683 3.971-1.551 1.267-3.529 2.029-5.683 2.029s-4.133-.762-5.683-2.029zm9.677 3.267c.63-.247 1.23-.551 1.798-.904 3.13 4.753 8.479 7.666 14.208 7.666s11.078-2.913 14.208-7.666c.568.354 1.168.657 1.798.904-3.481 5.433-9.506 8.762-16.006 8.762s-12.525-3.329-16.006-8.762zm8.524 9.37c.559.213 1.125.408 1.702.573l-2.94 8.819h-1.893z"/><path d="m7 13v2h8v-8h-2v4.586l-10.293-10.293-1.414 1.414 10.293 10.293z"/><path d="m7 51h4.586l-10.293 10.293 1.414 1.414 10.293-10.293v4.586h2v-8h-8z"/><path d="m57 51v-2h-8v8h2v-4.586l10.293 10.293 1.414-1.414-10.293-10.293z"/><path d="m57 13h-4.586l10.293-10.293-1.414-1.414-10.293 10.293v-4.586h-2v8h8z"/></g></g></svg>