<svg xmlns="http://www.w3.org/2000/svg" width="150.443" height="132.864" viewBox="0 0 150.443 132.864"><defs><style>.a{fill:#5a6470;}.b{fill:#6e76e5;}.c{fill:#ff9f22;}.d{fill:#0051bf;}.e{fill:#ffd422;}.f{fill:#fff;}</style></defs><g transform="translate(0 0)"><path class="a" d="M148,182.885H2.6a2.507,2.507,0,1,1,0-5.014H145.5V62.556a2.507,2.507,0,1,1,5.014,0V180.378A2.507,2.507,0,0,1,148,182.885Z" transform="translate(-0.067 -50.022)"/><path class="b" d="M48.1,236.049H78.18V291.2H48.1Z" transform="translate(-33.026 -170.871)"/><path class="c" d="M192.1,140.049H222.18v85.233H192.1Z" transform="translate(-131.903 -104.953)"/><path class="d" d="M336.1,60.049H366.18v110.3H336.1Z" transform="translate(-230.779 -50.022)"/><path class="e" d="M52.675,30.556l8.255,8.255L40.14,59.6l-5.748-5.748a2.507,2.507,0,0,0-3.545,0L.765,83.934a2.507,2.507,0,1,0,3.483,3.606l.062-.062,28.31-28.31,5.748,5.748a2.507,2.507,0,0,0,3.545,0L64.474,42.356l8.255,8.255,2.507-22.562Z" transform="translate(0 -28.049)"/><g transform="translate(22.593 42.616)"><path class="f" d="M74.6,366.076A2.507,2.507,0,0,1,72.1,363.57v-5.014a2.507,2.507,0,1,1,5.014,0v5.014A2.507,2.507,0,0,1,74.6,366.076Z" transform="translate(-72.098 -295.884)"/><path class="f" d="M74.6,307.09a2.507,2.507,0,0,1-2.507-2.507V294.556a2.507,2.507,0,1,1,5.014,0v10.027A2.507,2.507,0,0,1,74.6,307.09Z" transform="translate(-72.098 -251.939)"/><path class="f" d="M218.6,366.076a2.507,2.507,0,0,1-2.507-2.507v-5.014a2.507,2.507,0,0,1,5.014,0v5.014A2.507,2.507,0,0,1,218.6,366.076Z" transform="translate(-170.975 -295.884)"/><path class="f" d="M218.6,274.131a2.507,2.507,0,0,1-2.507-2.507V246.556a2.507,2.507,0,0,1,5.014,0v25.069A2.507,2.507,0,0,1,218.6,274.131Z" transform="translate(-170.975 -218.98)"/><path class="f" d="M362.6,366.076a2.507,2.507,0,0,1-2.507-2.507v-5.014a2.507,2.507,0,1,1,5.014,0v5.014A2.507,2.507,0,0,1,362.6,366.076Z" transform="translate(-269.851 -295.884)"/><path class="f" d="M362.6,219.2a2.507,2.507,0,0,1-2.507-2.507V166.556a2.507,2.507,0,1,1,5.014,0v50.137A2.507,2.507,0,0,1,362.6,219.2Z" transform="translate(-269.851 -164.049)"/></g></g></svg>