<svg xmlns="http://www.w3.org/2000/svg" width="49.65" height="49.65" viewBox="0 0 49.65 49.65"><defs><style>.a{fill:#fff;}</style></defs><path class="a" d="M216.5,211.752A4.752,4.752,0,1,1,211.752,207,4.752,4.752,0,0,1,216.5,211.752Zm0,0" transform="translate(-186.927 -186.927)"/><path class="a" d="M158.284,138.768a4.721,4.721,0,0,0-2.705-2.705,7.887,7.887,0,0,0-2.647-.491c-1.5-.069-1.954-.083-5.76-.083s-4.257.014-5.76.083a7.892,7.892,0,0,0-2.647.491,4.723,4.723,0,0,0-2.706,2.705,7.89,7.89,0,0,0-.491,2.647c-.069,1.5-.083,1.954-.083,5.76s.015,4.257.083,5.76a7.887,7.887,0,0,0,.491,2.647,4.721,4.721,0,0,0,2.705,2.705,7.877,7.877,0,0,0,2.647.491c1.5.069,1.953.083,5.76.083s4.258-.014,5.76-.083a7.877,7.877,0,0,0,2.647-.491,4.721,4.721,0,0,0,2.705-2.705,7.894,7.894,0,0,0,.491-2.647c.069-1.5.083-1.954.083-5.76s-.014-4.257-.083-5.76A7.877,7.877,0,0,0,158.284,138.768Zm-11.112,15.727a7.32,7.32,0,1,1,7.32-7.32A7.32,7.32,0,0,1,147.171,154.495Zm7.609-13.219a1.711,1.711,0,1,1,1.711-1.711A1.711,1.711,0,0,1,154.781,141.276Zm0,0" transform="translate(-122.346 -122.35)"/><path class="a" d="M24.825,0A24.825,24.825,0,1,0,49.65,24.825,24.828,24.828,0,0,0,24.825,0ZM38.994,30.7a10.459,10.459,0,0,1-.663,3.46,7.289,7.289,0,0,1-4.169,4.169,10.466,10.466,0,0,1-3.46.663c-1.52.069-2.006.086-5.877.086s-4.357-.017-5.877-.086a10.466,10.466,0,0,1-3.46-.663,7.289,7.289,0,0,1-4.169-4.169,10.456,10.456,0,0,1-.663-3.46c-.07-1.52-.086-2.006-.086-5.877s.016-4.357.086-5.877a10.46,10.46,0,0,1,.662-3.46,7.294,7.294,0,0,1,4.169-4.169,10.468,10.468,0,0,1,3.46-.663c1.52-.069,2.006-.086,5.877-.086s4.357.017,5.877.086a10.47,10.47,0,0,1,3.46.662,7.291,7.291,0,0,1,4.169,4.169,10.457,10.457,0,0,1,.663,3.46c.069,1.52.086,2.006.086,5.877S39.063,29.182,38.994,30.7Zm0,0"/></svg>