<svg xmlns="http://www.w3.org/2000/svg" width="129.879" height="129.879" viewBox="0 0 129.879 129.879"><defs><style>.a{fill:#0051bf;}.b{fill:#29b6f6;}.c{fill:#977ef2;}.d{fill:#2955d9;}.e{fill:#ffc107;}.f{fill:#249ed6;}.g{fill:#6e76e5;}.h{fill:#dea806;}</style></defs><path class="a" d="M100.981,88.8a43.293,43.293,0,1,1,0-47.73,26.334,26.334,0,0,1,12.663-3.193,26.929,26.929,0,0,1,11.418,2.543,64.939,64.939,0,1,0,0,49.029A26.929,26.929,0,0,1,113.644,92,26.334,26.334,0,0,1,100.981,88.8ZM64.939,43.293A21.6,21.6,0,0,0,56.5,84.8,14.86,14.86,0,0,1,48.7,71.7V67.645A17.622,17.622,0,0,1,66.292,50.057H80.633A21.568,21.568,0,0,0,64.939,43.293Zm0,43.293a19.976,19.976,0,0,0,5.141-.649L68.89,85.5a14.267,14.267,0,0,1-4.546,1.028Zm-1.353,0,.758-.054a18.648,18.648,0,0,1-7.36-1.515,14.15,14.15,0,0,0,6.6,1.569Z" transform="translate(0)"/><path class="b" d="M13.412,36.411V32.352A17.622,17.622,0,0,1,31,14.765H45.34A21.615,21.615,0,1,0,21.2,49.507,14.86,14.86,0,0,1,13.412,36.411Zm15.64,14.828.6.054a19.976,19.976,0,0,0,5.141-.649L33.6,50.211a14.268,14.268,0,0,1-4.546,1.028Zm-.758.054.758-.054a18.648,18.648,0,0,1-7.36-1.515,14.15,14.15,0,0,0,6.6,1.569Z" transform="translate(35.293 35.293)"/><path class="c" d="M83.334,71.158a43.293,43.293,0,1,1,0-47.73,27.253,27.253,0,0,0-9.9,8.983H62.987A21.615,21.615,0,1,0,38.851,67.153l.487.216a14.15,14.15,0,0,0,6.6,1.569l.758-.054.6.054a19.976,19.976,0,0,0,5.141-.649,14.207,14.207,0,0,0,4.329.649A14.886,14.886,0,0,0,69.21,62.175h4.221a27.253,27.253,0,0,0,9.9,8.983Z" transform="translate(17.646 17.646)"/><path class="d" d="M31,14.765H45.34A21.615,21.615,0,1,0,21.2,49.507a14.86,14.86,0,0,1-7.793-13.1V32.352A17.622,17.622,0,0,1,31,14.765Z" transform="translate(35.293 35.293)"/><g transform="translate(59.528 48.704)"><path class="e" d="M34.235,41.47A16.235,16.235,0,1,1,50.47,25.235,16.255,16.255,0,0,1,34.235,41.47Zm0-24.352a8.117,8.117,0,1,0,8.117,8.117A8.127,8.127,0,0,0,34.235,17.117Z" transform="translate(19.881 -9)"/><path class="e" d="M15.059,26.132A4.06,4.06,0,0,1,11,22.073V18.015a6.774,6.774,0,0,1,6.765-6.765H52.94a4.059,4.059,0,0,1,0,8.117H19.117v2.706A4.06,4.06,0,0,1,15.059,26.132Z" transform="translate(-11 0.926)"/><path class="e" d="M17.059,26.132A4.06,4.06,0,0,1,13,22.073V15.309a4.059,4.059,0,0,1,8.117,0v6.765A4.06,4.06,0,0,1,17.059,26.132Z" transform="translate(-2.177 0.926)"/></g><path class="a" d="M21.646,12H0A64.932,64.932,0,0,0,125.062,36.515a26.929,26.929,0,0,1-11.418,2.543,26.334,26.334,0,0,1-12.663-3.193A43.062,43.062,0,0,1,64.939,55.293,43.35,43.35,0,0,1,21.646,12Z" transform="translate(0 52.939)"/><path class="f" d="M22.436,16.2a14.267,14.267,0,0,1-4.546,1.028l.6.054a19.976,19.976,0,0,0,5.141-.649ZM10.53,15.71a14.15,14.15,0,0,0,6.6,1.569l.758-.054a18.648,18.648,0,0,1-7.36-1.515Z" transform="translate(46.454 69.306)"/><path class="g" d="M25.646,12H4A43.35,43.35,0,0,0,47.293,55.293,43.062,43.062,0,0,0,83.334,35.865a27.253,27.253,0,0,1-9.9-8.983H69.21a14.886,14.886,0,0,1-12.447,6.765A14.207,14.207,0,0,1,52.434,33a19.976,19.976,0,0,1-5.141.649l-.6-.054-.758.054a14.15,14.15,0,0,1-6.6-1.569l-.487-.216A21.481,21.481,0,0,1,25.646,12Z" transform="translate(17.646 52.939)"/><path class="a" d="M13.623,12H8A21.481,21.481,0,0,0,21.2,31.861a14.86,14.86,0,0,1-7.793-13.1V14.706A17.17,17.17,0,0,1,13.623,12Z" transform="translate(35.293 52.939)"/><path class="h" d="M50.051,12H41.933A8.117,8.117,0,0,1,25.7,12a4.06,4.06,0,0,1-4.059,4.059H18.1A16.236,16.236,0,0,0,50.051,12Z" transform="translate(79.828 52.939)"/><path class="h" d="M21.823,12H11.563A6.726,6.726,0,0,0,11,14.706v4.059a4.059,4.059,0,0,0,8.117,0V16.059h2.706ZM57,12H29.941v4.059h23A4.06,4.06,0,0,0,57,12Z" transform="translate(48.528 52.939)"/><path class="h" d="M21.117,12H13v6.765a4.059,4.059,0,0,0,8.117,0V12Z" transform="translate(57.351 52.939)"/></svg>