<svg xmlns="http://www.w3.org/2000/svg" width="49.55" height="49.55" viewBox="0 0 49.55 49.55"><defs><style>.a{fill:#fff;}</style></defs><path class="a" d="M24.775,0A24.775,24.775,0,1,0,49.55,24.775,24.778,24.778,0,0,0,24.775,0Zm-7.2,37.453H11.542V19.3h6.034ZM14.559,16.821H14.52a3.145,3.145,0,1,1,.079-6.272,3.146,3.146,0,1,1-.04,6.272ZM39.333,37.453H33.3V27.742c0-2.441-.874-4.105-3.057-4.105a3.3,3.3,0,0,0-3.1,2.207,4.132,4.132,0,0,0-.2,1.472V37.453H20.915s.079-16.45,0-18.153h6.034v2.57a5.99,5.99,0,0,1,5.438-3c3.97,0,6.946,2.594,6.946,8.17Zm0,0"/></svg>