<svg xmlns="http://www.w3.org/2000/svg" width="94.241" height="73.534" viewBox="0 0 94.241 73.534"><defs><style>.a{fill:#fff;}</style></defs><g transform="translate(0 0)"><path class="a" d="M945.376,63.609c.453-2.379,1.473-3.029,1.473-3.029a19.673,19.673,0,0,1,3.4-4.332c.849-.623,1.585-2.18,2.265-3a33.22,33.22,0,0,0,2.209-4.756,18.539,18.539,0,0,0,.312-3.115c.085-2.152.934-1.048.934-1.048.226,2.52-1.84,6.568-1.84,6.568a20.57,20.57,0,0,1-4.359,6.6,14.706,14.706,0,0,0-3.8,6.356,2.26,2.26,0,0,1,.885,3.4.746.746,0,0,0-.375.913c.283,1.585,1.076.5,1.076.5s2.889-17.6,27.184-31.359c0,0,17.667-8.846,17.667,1.013s-1.017,8.16-1.017,8.16a3.96,3.96,0,0,1-1.755,4.19s.509,3.115-1.3,3.625-.453,3.681-.453,3.681.68.623-1.526,3.737a7.577,7.577,0,0,1-1.189,6.4s1.246,3.511-1.526,3.4c0,0-1.642,1.133-6.738.623,0,0,8.664,5.437,6.738,7.418,0,0,2.945,6.568.566,9.174,0,0-1.3.339-1.017,4.7,0,0,.4.737-2.661,1.473,0,0-1.526-.057-.623,4.021,0,0-.17,1.585-2.945,1.075a2.019,2.019,0,0,0-2.039,2.662s.509,1.526-2.378,1.245a1.694,1.694,0,0,0-2.265,1.246s.509,2.1-1.812,1.869c0,0-3.17-2.265-4.982-1.017,0,0-2.152,2.548-4.359.057,0,0-1.869-6.738-4.586-8.154a28.963,28.963,0,0,1-7.588-15.911s-1.189-.509-.736,1.755c0,0,.283,15.458-1.812,16.419Z" transform="translate(-898.165 -33.61)"/><path class="a" d="M355.208,63.111a5.112,5.112,0,0,0-1.656-3.221,19.653,19.653,0,0,0-3.4-4.331c-.849-.623-1.585-2.18-2.265-3a33.158,33.158,0,0,1-2.208-4.756,18.542,18.542,0,0,1-.312-3.115c-.085-2.152-.934-1.048-.934-1.048-.227,2.52,1.84,6.568,1.84,6.568a20.57,20.57,0,0,0,4.359,6.6,14.675,14.675,0,0,1,3.793,6.356,2.26,2.26,0,0,0-.884,3.4.746.746,0,0,1,.375.913c-.283,1.585-1.076.5-1.076.5s-2.885-17.6-27.177-31.359c0,0-17.667-8.846-17.667,1.013s1.017,8.16,1.017,8.16a3.961,3.961,0,0,0,1.755,4.191s-.509,3.114,1.3,3.624.453,3.681.453,3.681-.68.623,1.526,3.737a7.577,7.577,0,0,0,1.189,6.4s-1.246,3.511,1.526,3.4c0,0,1.642,1.133,6.738.623,0,0-8.664,5.437-6.738,7.418,0,0-2.945,6.568-.566,9.174,0,0,1.3.339,1.017,4.7,0,0-.4.736,2.662,1.472,0,0,1.526-.057.623,4.021,0,0,.17,1.585,2.945,1.075a2.019,2.019,0,0,1,2.039,2.662s-.509,1.526,2.378,1.245a1.694,1.694,0,0,1,2.265,1.246s-.509,2.1,1.812,1.869c0,0,3.171-2.265,4.982-1.017,0,0,2.152,2.548,4.359.057,0,0,1.869-6.738,4.586-8.154a29,29,0,0,0,7.536-15.532.2.2,0,0,1,.384-.035,3.915,3.915,0,0,1-.073,1.876s-1.6,15.043.49,16.006Z" transform="translate(-308 -32.97)"/></g></svg>