<svg xmlns="http://www.w3.org/2000/svg" width="121.723" height="132.788" viewBox="0 0 121.723 132.788"><defs><style>.a,.b{fill:#0051bf;}.b{opacity:0.1;}</style></defs><g transform="translate(-21.333)"><circle class="a" cx="13.832" cy="13.832" r="13.832" transform="translate(68.362 0)"/><circle class="a" cx="8.299" cy="8.299" r="8.299" transform="translate(73.895 5.533)"/><path class="b" d="M237.077,26.19a8.254,8.254,0,0,1-12.49,8.546,8.29,8.29,0,1,0,12.49-8.546Z" transform="translate(-150.54 -19.398)"/><path class="a" d="M140.289,128H24.1a2.765,2.765,0,0,0-2.767,2.766v11.066A2.765,2.765,0,0,0,24.1,144.6H60.063v80.226a2.765,2.765,0,0,0,2.767,2.767H76.662a2.765,2.765,0,0,0,2.767-2.767v-41.5h5.533v41.5a2.765,2.765,0,0,0,2.767,2.767h13.832a2.765,2.765,0,0,0,2.767-2.767V144.6h35.963a2.765,2.765,0,0,0,2.766-2.767V130.766A2.765,2.765,0,0,0,140.289,128Z" transform="translate(0 -94.803)"/><path class="a" d="M153.324,154.866H117.36a2.765,2.765,0,0,0-2.766,2.767v80.226h-8.3v-41.5a2.765,2.765,0,0,0-2.767-2.767H92.462a2.765,2.765,0,0,0-2.767,2.767v41.5H81.4V157.632a2.765,2.765,0,0,0-2.767-2.767H42.667v-5.533H153.324v5.533Z" transform="translate(-15.801 -110.603)"/><path class="b" d="M311.328,154.866H275.365a2.765,2.765,0,0,0-2.767,2.767v80.226h-8.3v-41.5a2.765,2.765,0,0,0-2.767-2.767H256V149.333h55.328Z" transform="translate(-173.806 -110.603)"/><path class="a" d="M82.194,27.664A13.832,13.832,0,1,0,68.362,13.832,13.848,13.848,0,0,0,82.194,27.664ZM140.289,33.2H24.1a2.765,2.765,0,0,0-2.767,2.767V47.029A2.765,2.765,0,0,0,24.1,49.8H60.063v80.226a2.765,2.765,0,0,0,2.767,2.767H76.662a2.765,2.765,0,0,0,2.767-2.767v-41.5h5.533v41.5a2.765,2.765,0,0,0,2.767,2.767h13.832a2.765,2.765,0,0,0,2.767-2.767V49.8h35.963a2.765,2.765,0,0,0,2.766-2.767V35.963A2.765,2.765,0,0,0,140.289,33.2Z" transform="translate(0 0)"/></g></svg>