<svg xmlns="http://www.w3.org/2000/svg" xmlns:xlink="http://www.w3.org/1999/xlink" width="588" height="576" viewBox="0 0 588 576"><defs><style>.a{fill:#e7c994;}.b{fill:#0051bf;}.c{fill:#6e76e5;}.d{fill:#c47e4e;}.e{fill:#fff5f5;}.f{fill:#e1ebf0;}.g{fill:#ff9f22;}.h{fill:#ffd422;}.i{filter:url(#e);}.j{filter:url(#c);}.k{filter:url(#a);}</style><filter id="a" x="268.301" y="0" width="51.398" height="571.301" filterUnits="userSpaceOnUse"><feOffset dy="3" input="SourceAlpha"/><feGaussianBlur stdDeviation="3" result="b"/><feFlood flood-opacity="0.369"/><feComposite operator="in" in2="b"/><feComposite in="SourceGraphic"/></filter><filter id="c" x="262.717" y="36.025" width="325.283" height="422.308" filterUnits="userSpaceOnUse"><feOffset dy="3" input="SourceAlpha"/><feGaussianBlur stdDeviation="3" result="d"/><feFlood flood-opacity="0.349"/><feComposite operator="in" in2="d"/><feComposite in="SourceGraphic"/></filter><filter id="e" x="0" y="36.025" width="303" height="422.307" filterUnits="userSpaceOnUse"><feOffset dy="3" input="SourceAlpha"/><feGaussianBlur stdDeviation="3" result="f"/><feFlood flood-opacity="0.349"/><feComposite operator="in" in2="f"/><feComposite in="SourceGraphic"/></filter></defs><g transform="translate(9 6)"><g class="k" transform="matrix(1, 0, 0, 1, -9, -6)"><path class="a" d="M241,0h33.4V553.3H241Z" transform="translate(36.3 6)"/></g><g class="j" transform="matrix(1, 0, 0, 1, -9, -6)"><path class="b" d="M543.267,32.359h-285l-22.283,166.62,22.283,237.688h285Z" transform="translate(35.73 9.67)"/></g><g class="i" transform="matrix(1, 0, 0, 1, -9, -6)"><path class="c" d="M0,32.359H285V436.666H0Z" transform="translate(9 9.67)"/></g><path class="d" d="M399.156,515.4V482H257.134l-11.142,16.7,11.142,16.7Z" transform="translate(27.866 54.602)"/><path class="a" d="M128.429,482H270.451v33.4H128.429Z" transform="translate(14.549 54.602)"/><g transform="translate(53.258 131.268)"><path class="e" d="M47.839,245.482h82.818v33.4H47.839Z" transform="translate(-47.839 -103.46)"/><path class="e" d="M47.839,181.7h82.818v33.4H47.839Z" transform="translate(-47.839 -110.685)"/><path class="e" d="M47.839,117.911h82.818v33.4H47.839Z" transform="translate(-47.839 -117.911)"/></g><path class="f" d="M389.77,245.482h82.818v33.4H389.77Z" transform="translate(44.154 27.809)"/><path class="f" d="M389.77,181.7h82.818v33.4H389.77Z" transform="translate(44.154 20.583)"/><path class="f" d="M389.77,117.911h82.818v33.4H389.77Z" transform="translate(44.154 13.357)"/><path class="g" d="M353.933,176.818,235.984,154.535l22.283,117.949A95.774,95.774,0,0,0,353.933,176.818Z" transform="translate(26.733 17.506)"/><path class="f" d="M488.875,309.267H257.134l-11.142,16.7,11.142,16.7H488.875Z" transform="translate(27.866 35.034)"/><path class="e" d="M47.839,309.267H279.581v33.4H47.839Z" transform="translate(5.419 35.034)"/><path class="h" d="M195.266,242.164a95.368,95.368,0,0,0,67.614,28.051V174.55L215.047,194Z" transform="translate(22.12 19.773)"/><path class="f" d="M258.267,88.62l-22.283,95.665H353.933A95.774,95.774,0,0,0,258.267,88.62Z" transform="translate(26.733 10.039)"/><path class="e" d="M265.734,88.62A95.621,95.621,0,0,0,198.12,251.9l67.614-67.614Z" transform="translate(19.266 10.039)"/></g></svg>