<svg xmlns="http://www.w3.org/2000/svg" width="49.792" height="49.792" viewBox="0 0 49.792 49.792"><defs><style>.a{fill:#fff;}</style></defs><path class="a" d="M24.9,0a24.9,24.9,0,1,0,24.9,24.9A24.9,24.9,0,0,0,24.9,0ZM36.264,19.412q.017.368.016.738c0,7.551-5.748,16.258-16.259,16.259h0a16.175,16.175,0,0,1-8.759-2.567,11.622,11.622,0,0,0,1.363.079,11.466,11.466,0,0,0,7.1-2.446,5.721,5.721,0,0,1-5.339-3.969,5.7,5.7,0,0,0,2.581-.1,5.716,5.716,0,0,1-4.584-5.6c0-.026,0-.049,0-.073a5.675,5.675,0,0,0,2.588.715A5.719,5.719,0,0,1,13.2,14.819,16.224,16.224,0,0,0,24.979,20.79a5.717,5.717,0,0,1,9.738-5.211,11.462,11.462,0,0,0,3.629-1.387,5.737,5.737,0,0,1-2.513,3.161,11.4,11.4,0,0,0,3.281-.9,11.613,11.613,0,0,1-2.85,2.959Zm0,0"/></svg>