<svg xmlns="http://www.w3.org/2000/svg" width="50.041" height="50.041" viewBox="0 0 50.041 50.041"><defs><style>.a{fill:#fff;}</style></defs><path class="a" d="M25.021,0A25.021,25.021,0,1,0,50.041,25.021,25.023,25.023,0,0,0,25.021,0Zm.53,39.588h-.006a14.969,14.969,0,0,1-7.157-1.822L10.45,39.848l2.125-7.758a14.976,14.976,0,1,1,12.976,7.5Zm0,0" transform="translate(0)"/><path class="a" d="M146.523,124.469a12.448,12.448,0,0,0-10.549,19.064l.3.471-1.258,4.592,4.711-1.235.455.27a12.427,12.427,0,0,0,6.335,1.734h0a12.447,12.447,0,0,0,.005-24.895Zm7.321,17.791a3.855,3.855,0,0,1-2.526,1.779,5.135,5.135,0,0,1-2.357-.148,21.607,21.607,0,0,1-2.133-.788,16.678,16.678,0,0,1-6.392-5.648,7.276,7.276,0,0,1-1.528-3.87,4.194,4.194,0,0,1,1.31-3.12,1.375,1.375,0,0,1,1-.468c.249,0,.5,0,.717.013s.538-.087.842.642c.312.749,1.06,2.59,1.154,2.777a.69.69,0,0,1,.031.656,10.661,10.661,0,0,1-.935,1.279c-.166.206-.383.389-.164.764a11.279,11.279,0,0,0,2.081,2.591,10.228,10.228,0,0,0,3.009,1.857c.374.187.592.156.811-.094s.935-1.092,1.185-1.467.5-.312.842-.187,2.183,1.03,2.557,1.217.623.281.717.437a3.121,3.121,0,0,1-.218,1.779Zm0,0" transform="translate(-120.967 -112.304)"/></svg>